<?xml version="1.0" ?><!DOCTYPE svg  PUBLIC '-//W3C//DTD SVG 1.1//EN'  'http://www.w3.org/Graphics/SVG/1.1/DTD/svg11.dtd'><svg enable-background="new 0 0 512 512" id="Layer_1" version="1.1" viewBox="0 0 512 512" xml:space="preserve" xmlns="http://www.w3.org/2000/svg" xmlns:xlink="http://www.w3.org/1999/xlink"><g><path d="M405.3,217.7c0-103.4-84.1-187.5-187.5-187.5S30.2,114.3,30.2,217.7s84.1,187.5,187.5,187.5   c46.6,0,89.3-17.1,122.1-45.4l-29.8-29.8c-25.1,20.7-57.3,33.2-92.4,33.2c-80.2,0-145.5-65.3-145.5-145.5S137.5,72.2,217.7,72.2   c80.2,0,145.5,65.3,145.5,145.5c0,35-12.5,67.2-33.2,92.4l29.8,29.8C388.1,307.1,405.3,264.4,405.3,217.7z" fill="#56ACE0"/><path d="M310,290c15.7-19.9,25.1-45,25.1-72.2c0-64.7-52.6-117.3-117.3-117.3s-117.3,52.6-117.3,117.3   S153.1,335,217.7,335c27.3,0,52.3-9.4,72.2-25.1l-30-30c-12.1,8.2-26.6,13-42.3,13c-41.5,0-75.3-33.8-75.3-75.3   s33.8-75.3,75.3-75.3c41.5,0,75.3,33.8,75.3,75.3c0,15.7-4.8,30.2-13,42.3L310,290z" fill="#FFC10D"/><path d="M227.7,207.8l31.7,31.7c3.4-6.5,5.4-13.9,5.4-21.7c0-25.9-21.1-47-47-47s-47,21.1-47,47s21.1,47,47,47   c7.8,0,15.2-2,21.7-5.4l-31.7-31.7c-5.5-5.5-5.5-14.4,0-20C213.3,202.3,222.2,202.3,227.7,207.8z" fill="#FFFFFF"/><path d="M495.9,424.1H444l-19.4-19.4h23.6c7.8,0,14.1-6.3,14.1-14.1c0-7.8-6.3-14.1-14.1-14.1h-51.9l-16.5-16.5   c33.4-38,53.6-87.7,53.6-142.1C433.5,98.8,336.7,2,217.7,2C98.8,2,2,98.8,2,217.7s96.8,215.7,215.7,215.7   c54.4,0,104.1-20.3,142.1-53.6l16.5,16.5v51.9c0,7.8,6.3,14.1,14.1,14.1c7.8,0,14.1-6.3,14.1-14.1v-23.6l19.4,19.4v51.9   c0,7.8,6.3,14.1,14.1,14.1c7.8,0,14.1-6.3,14.1-14.1v-23.6l15,15c5.5,5.5,14.4,5.5,20,0c5.5-5.5,5.5-14.4,0-20l-15-15h23.6   c7.8,0,14.1-6.3,14.1-14.1C510,430.4,503.7,424.1,495.9,424.1z M217.7,142.5c-41.5,0-75.3,33.8-75.3,75.3s33.8,75.3,75.3,75.3   c15.7,0,30.2-4.8,42.3-13l30,30c-19.9,15.7-45,25.1-72.2,25.1c-64.7,0-117.3-52.6-117.3-117.3s52.6-117.3,117.3-117.3   S335,153.1,335,217.7c0,27.3-9.4,52.3-25.1,72.2l-30-30c8.2-12.1,13-26.6,13-42.3C293,176.2,259.3,142.5,217.7,142.5z M207.8,227.7   l31.7,31.7c-6.5,3.4-13.9,5.4-21.7,5.4c-25.9,0-47-21.1-47-47s21.1-47,47-47s47,21.1,47,47c0,7.8-2,15.2-5.4,21.7l-31.7-31.7   c-5.5-5.5-14.4-5.5-20,0C202.3,213.3,202.3,222.2,207.8,227.7z M363.3,217.7c0-80.2-65.3-145.5-145.5-145.5   c-80.2,0-145.5,65.3-145.5,145.5s65.3,145.5,145.5,145.5c35,0,67.2-12.5,92.4-33.2l29.8,29.8c-32.8,28.3-75.5,45.4-122.1,45.4   c-103.4,0-187.5-84.1-187.5-187.5S114.3,30.2,217.7,30.2s187.5,84.1,187.5,187.5c0,46.6-17.1,89.3-45.4,122.2l-29.8-29.8   C350.8,285,363.3,252.8,363.3,217.7z" fill="#194F82"/></g></svg>