<?xml version="1.0" ?><!DOCTYPE svg  PUBLIC '-//W3C//DTD SVG 1.1//EN'  'http://www.w3.org/Graphics/SVG/1.1/DTD/svg11.dtd'><svg enable-background="new 0 0 512 512" id="Layer_1" version="1.1" viewBox="0 0 512 512" xml:space="preserve" xmlns="http://www.w3.org/2000/svg" xmlns:xlink="http://www.w3.org/1999/xlink"><g><path d="M421.8,30.2H90.2c-7.8,0-14.1,6.3-14.1,14.1v184.3c0,7.8,6.3,14.1,14.1,14.1h331.5   c7.8,0,14.1-6.3,14.1-14.1V44.3C435.9,36.6,429.5,30.2,421.8,30.2z" fill="#FFFFFF"/><path d="M421.8,2H90.2C66.9,2,47.9,21,47.9,44.3v184.3c0,23.3,19,42.3,42.3,42.3h331.5c23.3,0,42.3-19,42.3-42.3   V44.3C464.1,21,445.1,2,421.8,2z M435.9,228.6c0,7.8-6.3,14.1-14.1,14.1H90.2c-7.8,0-14.1-6.3-14.1-14.1V44.3   c0-7.8,6.3-14.1,14.1-14.1h331.5c7.8,0,14.1,6.3,14.1,14.1V228.6z" fill="#194F82"/><path d="M393.5,58.4H118.5c-7.8,0-14.1,6.3-14.1,14.1v23.2h52.3c7.8,0,14.1,6.3,14.1,14.1s-6.3,14.1-14.1,14.1   h-52.3V149H130c7.8,0,14.1,6.3,14.1,14.1c0,7.8-6.3,14.1-14.1,14.1h-25.7v23.2c0,7.8,6.3,14.1,14.1,14.1h275.1   c7.8,0,14.1-6.3,14.1-14.1V72.6C407.7,64.8,401.3,58.4,393.5,58.4z" fill="#FFC10D"/><path d="M150.7,366.3c11.5,0,20.8-9.3,20.8-20.8s-9.4-20.9-20.8-20.9s-20.8,9.4-20.8,20.9S139.2,366.3,150.7,366.3z   " fill="#56ACE0"/><path d="M179.8,436L163,465.7c-5.4,9.6-19.2,9.6-24.6,0L121.6,436c-18.3,8.9-31.7,26-36,45.8h130.2   C211.5,461.9,198.1,444.9,179.8,436z" fill="#FFC10D"/><path d="M382.1,345.4c0-11.5-9.3-20.9-20.8-20.9s-20.9,9.4-20.9,20.9s9.4,20.8,20.9,20.8S382.1,356.9,382.1,345.4z" fill="#FFFFFF"/><path d="M390.6,436l-16.8,29.8c-5.4,9.6-19.2,9.6-24.6,0L332.4,436c-18.3,8.9-31.7,26-36,45.8h130.2   C422.2,461.9,408.9,444.9,390.6,436z" fill="#56ACE0"/><path d="M199.8,345.4c0-27.1-22-49.1-49.1-49.1s-49.1,22-49.1,49.1c0,27.1,22,49.1,49.1,49.1   S199.8,372.5,199.8,345.4z M150.7,324.6c11.5,0,20.8,9.4,20.8,20.9s-9.4,20.8-20.8,20.8s-20.8-9.3-20.8-20.8   S139.2,324.6,150.7,324.6z" fill="#194F82"/><path d="M177.4,404.9c-6.3-1.9-13.1,0.9-16.3,6.6l-10.4,18.6l-10.4-18.6c-3.2-5.7-10-8.5-16.3-6.6   c-40.1,11.8-68.2,49.2-68.2,91c0,7.8,6.3,14.1,14.1,14.1h161.5c7.8,0,14.1-6.3,14.1-14.1C245.6,454.1,217.6,416.7,177.4,404.9z    M85.6,481.8c4.4-19.8,17.7-36.9,36-45.8l16.8,29.8c5.4,9.6,19.2,9.6,24.6,0l16.8-29.8c18.3,8.9,31.7,26,36,45.8H85.6z" fill="#194F82"/><path d="M388.2,404.9c-6.3-1.9-13.1,0.9-16.3,6.6l-10.4,18.6L351,411.5c-3.2-5.7-10-8.5-16.3-6.6   c-40.1,11.8-68.2,49.2-68.2,91c0,7.8,6.3,14.1,14.1,14.1h161.5c7.8,0,14.1-6.3,14.1-14.1C456.4,454.1,428.3,416.7,388.2,404.9z    M296.4,481.8c4.4-19.8,17.7-36.9,36-45.8l16.8,29.8c5.4,9.6,19.2,9.6,24.6,0l16.8-29.8c18.3,8.9,31.7,26,36,45.8H296.4z" fill="#194F82"/><path d="M410.4,345.4c0-27.1-22-49.1-49.1-49.1c-27.1,0-49.1,22-49.1,49.1c0,27.1,22,49.1,49.1,49.1   C388.4,394.5,410.4,372.5,410.4,345.4z M340.4,345.4c0-11.5,9.4-20.9,20.9-20.9s20.8,9.4,20.8,20.9s-9.3,20.8-20.8,20.8   S340.4,356.9,340.4,345.4z" fill="#194F82"/></g></svg>