<?xml version="1.0" ?><!DOCTYPE svg  PUBLIC '-//W3C//DTD SVG 1.1//EN'  'http://www.w3.org/Graphics/SVG/1.1/DTD/svg11.dtd'><svg enable-background="new 0 0 512 512" id="Layer_1" version="1.1" viewBox="0 0 512 512" xml:space="preserve" xmlns="http://www.w3.org/2000/svg" xmlns:xlink="http://www.w3.org/1999/xlink"><g><g><path d="M256,427.1c-33.1,0-60.8,23.5-67.4,54.7h134.7C316.8,450.6,289.1,427.1,256,427.1z" fill="#FFFFFF"/><path d="M256,356.3c11,0,20-9,20-20c0-11-9-20-20-20c-11,0-20,9-20,20C236,347.3,245,356.3,256,356.3z" fill="#FFC10D"/><path d="M256,398.8c-53.5,0-97,43.5-97,97c0,7.8,6.3,14.1,14.1,14.1h165.9c7.8,0,14.1-6.3,14.1-14.1    C353,442.4,309.5,398.8,256,398.8z M188.6,481.8c6.5-31.2,34.3-54.7,67.4-54.7c33.1,0,60.8,23.5,67.4,54.7H188.6z" fill="#194F82"/><path d="M256,384.5c26.6,0,48.3-21.6,48.3-48.3c0-26.6-21.6-48.3-48.3-48.3s-48.3,21.6-48.3,48.3    C207.7,362.9,229.4,384.5,256,384.5z M256,316.3c11,0,20,9,20,20c0,11-9,20-20,20c-11,0-20-9-20-20C236,325.2,245,316.3,256,316.3    z" fill="#194F82"/></g><g><path d="M99,141c-33.1,0-60.8,23.5-67.4,54.7h134.7C159.9,164.5,132.1,141,99,141z" fill="#FFC10D"/><path d="M99,70.3c11,0,20-9,20-20s-9-20-20-20s-20,9-20,20S88,70.3,99,70.3z" fill="#FFFFFF"/><path d="M99,112.8c-53.5,0-97,43.5-97,97c0,7.8,6.3,14.1,14.1,14.1H182c7.8,0,14.1-6.3,14.1-14.1    C196.1,156.3,152.5,112.8,99,112.8z M31.7,195.7C38.2,164.5,65.9,141,99,141c33.1,0,60.8,23.5,67.4,54.7H31.7z" fill="#194F82"/><path d="M99,98.5c26.6,0,48.3-21.6,48.3-48.3S125.6,2,99,2S50.8,23.6,50.8,50.3S72.4,98.5,99,98.5z M99,30.2    c11,0,20,9,20,20s-9,20-20,20s-20-9-20-20S88,30.2,99,30.2z" fill="#194F82"/></g><g><path d="M413,141c-33.1,0-60.8,23.5-67.4,54.7h134.7C473.8,164.5,446.1,141,413,141z" fill="#56ACE0"/><path d="M413,70.3c11,0,20-9,20-20s-9-20-20-20s-20,9-20,20S401.9,70.3,413,70.3z" fill="#FFC10D"/><path d="M413,112.8c-53.5,0-97,43.5-97,97c0,7.8,6.3,14.1,14.1,14.1h165.9c7.8,0,14.1-6.3,14.1-14.1    C510,156.3,466.5,112.8,413,112.8z M345.6,195.7c6.5-31.2,34.3-54.7,67.4-54.7c33.1,0,60.8,23.5,67.4,54.7H345.6z" fill="#194F82"/><path d="M413,98.5c26.6,0,48.3-21.6,48.3-48.3S439.6,2,413,2s-48.3,21.6-48.3,48.3S386.4,98.5,413,98.5z M413,30.2    c11,0,20,9,20,20s-9,20-20,20s-20-9-20-20S401.9,30.2,413,30.2z" fill="#194F82"/></g><path d="M172.8,92.8c3,7.1,11.1,10.5,18.3,7.5l0.1-0.1c27.7-11.5,57.9-15.4,87.2-11.4L263,99.4   c-6.4,4.4-8,13.1-3.6,19.4l0.2,0.3c4.4,6.4,13.1,8,19.4,3.6l41.9-28.8c6.4-4.4,8.1-13.2,3.6-19.6l-28.8-41.9   c-4.4-6.4-13.1-8-19.4-3.6l-0.3,0.2c-6.4,4.4-8,13.1-3.6,19.4l8.5,12.4c-33.9-4.4-68.7,0.1-100.7,13.4l-0.1,0.1   c-7.1,3-10.5,11.1-7.5,18.3L172.8,92.8z" fill="#194F82"/><path d="M153.5,390c-23.8-18.2-42.1-42.4-53.4-69.8l16.6,7.9c7,3.4,15.5,0.4,18.8-6.7c3.4-7,0.4-15.5-6.7-18.8   l-45.7-21.8c-7-3.4-15.5-0.4-18.8,6.7l-21.8,45.8c-3.4,7-0.4,15.5,6.7,18.8l0,0c7,3.4,15.5,0.4,18.8-6.7l6.5-13.7   c13.2,31.7,34.3,59.6,61.8,80.7c6.2,4.7,15,3.6,19.8-2.6C160.9,403.6,159.7,394.8,153.5,390z" fill="#194F82"/><path d="M439.1,265.6c-7.7-1-14.8,4.4-15.8,12.2c-3.9,29.7-15.7,57.6-33.8,81.1l-1.4-18.3   c-0.6-7.8-7.4-13.6-15.2-13h0c-7.8,0.6-13.6,7.4-13,15.2l4,50.5c0.6,7.8,7.4,13.6,15.2,13l50.5-4c7.8-0.6,13.6-7.4,13-15.2v0   c-0.6-7.8-7.4-13.6-15.2-13l-14.9,1.2c20.8-27.2,34.3-59.5,38.8-93.9C452.3,273.6,446.9,266.6,439.1,265.6z" fill="#194F82"/></g></svg>